PathFileType	4	(X/Y/Z)	/Users/itak/Documents/Research/Walk-IL/dataset/trc/00233_00009.trc
DataRate	CameraRate	NumFrames	NumMarkers	Units	OrigDataRate	OrigDataStartFrame	OrigNumFrames
100.000000	100.000000	4	53	mm	100.000000	321	857
Frame#	Time	RPSI			LPSI			L3			STRN			T10			C7			CLAV			RBAK			LBAK			LSHO			LUPA			LAEL			LAOL			LWTS			LWPS			LFRA			LIFD			LHPS			LHTS			RSHO			RUPA			RAEL			RAOL			RWTS			RWPS			RFRA			RIFD			RHTS			RHPS			RBHD			LFHD			RFHD			LBHD			LHIP			RHIP			RASI			LASI			LKNE			LTHI			LANK			LTIP			LTOE			LMT1			LMT5			LHEE			RKNE			RTHI			RANK			RTIP			RTOE			RMT1			RMT5			RHEE			
		X1	Y1	Z1	X2	Y2	Z2	X3	Y3	Z3	X4	Y4	Z4	X5	Y5	Z5	X6	Y6	Z6	X7	Y7	Z7	X8	Y8	Z8	X9	Y9	Z9	X10	Y10	Z10	X11	Y11	Z11	X12	Y12	Z12	X13	Y13	Z13	X14	Y14	Z14	X15	Y15	Z15	X16	Y16	Z16	X17	Y17	Z17	X18	Y18	Z18	X19	Y19	Z19	X20	Y20	Z20	X21	Y21	Z21	X22	Y22	Z22	X23	Y23	Z23	X24	Y24	Z24	X25	Y25	Z25	X26	Y26	Z26	X27	Y27	Z27	X28	Y28	Z28	X29	Y29	Z29	X30	Y30	Z30	X31	Y31	Z31	X32	Y32	Z32	X33	Y33	Z33	X34	Y34	Z34	X35	Y35	Z35	X36	Y36	Z36	X37	Y37	Z37	X38	Y38	Z38	X39	Y39	Z39	X40	Y40	Z40	X41	Y41	Z41	X42	Y42	Z42	X43	Y43	Z43	X44	Y44	Z44	X45	Y45	Z45	X46	Y46	Z46	X47	Y47	Z47	X48	Y48	Z48	X49	Y49	Z49	X50	Y50	Z50	X51	Y51	Z51	X52	Y52	Z52	X53	Y53	Z53	

322	3.21	773.3206787109375	1024.555908203125	328.1002502441406	658.9314575195312	1028.51220703125	288.9276123046875	695.8532104492188	1113.836181640625	304.0010986328125	764.456787109375	1294.236328125	61.04753112792969	694.73779296875	1241.346801757812	305.0863647460938	704.133056640625	1501.268798828125	237.0648651123047	755.8787841796875	1412.351806640625	83.41028594970703	754.9315185546875	1366.083129882812	334.7858276367188	591.0250244140625	1460.37939453125	223.4250030517578	568.3082275390625	1458.288208007812	121.1074523925781	487.0013122558594	1340.482299804688	114.5630111694336	474.3599548339844	1133.919677734375	64.27581787109375	487.7168884277344	1105.702514648438	145.7403869628906	594.76123046875	932.1618041992188	-36.34844589233398	515.9078369140625	906.334228515625	-52.99999618530273	484.3573608398438	1034.044555664062	18.1235523223877	619.8463745117188	746.5771484375	-86.58935546875	540.7009887695312	825.74755859375	-85.65711212158203	605.9232788085938	844.3804931640625	-98.63906097412109	883.2799682617188	1463.805541992188	231.3341522216797	943.779052734375	1401.927856445312	269.8461608886719	993.5049438476562	1126.135375976562	307.9209899902344	899.8065185546875	1112.4375	318.8094177246094	1009.576171875	909.7884521484375	170.3157806396484	1055.701171875	900.14013671875	240.8927307128906	1018.150390625	1058.923461914062	288.3171691894531	1023.168762207031	716.9257202148438	160.7916717529297	1045.72998046875	790.5167236328125	140.3431396484375	1077.30126953125	793.8877563476562	205.5299987792969	784.0231323242188	1665.428344726562	181.9207000732422	701.0309448242188	1672.10595703125	-29.5613842010498	801.0966796875	1672.542358398438	-23.27219009399414	653.6405639648438	1663.343383789062	128.1027679443359	557.7471923828125	965.4395751953125	148.7951812744141	903.7162475585938	987.2752685546875	265.6910400390625	897.45654296875	1034.499145507812	161.9086761474609	632.9130249023438	1010.936279296875	68.36923217773438	679.2219848632812	489.7891235351562	102.5423126220703	629.58203125	629.0016479492188	106.6593017578125	727.41455078125	29.5937385559082	235.8572845458984	693.1802978515625	264.0902404785156	169.8098449707031	827.6082153320312	34.79336166381836	36.06811141967773	855.3950805664062	30.97273826599121	112.5130615234375	738.207763671875	31.99887657165527	107.4446640014648	765.494384765625	37.62307739257812	305.2108764648438	954.5966796875	510.1419677734375	132.2430114746094	949.2600708007812	776.195556640625	179.5518798828125	854.0181884765625	154.0886688232422	458.2561340332031	935.251220703125	400.9736938476562	168.7180633544922	896.4308471679688	50.3958740234375	282.2523193359375	835.5916137695312	70.52468109130859	308.1534729003906	917.75537109375	93.66748809814453	391.404052734375	779.46728515625	185.4207458496094	479.6392517089844	
323	3.22	777.0492553710938	1024.862915039062	323.0323791503906	662.0681762695312	1028.68994140625	285.3374328613281	698.9451293945312	1114.124267578125	299.8813781738281	764.68017578125	1294.446655273438	55.87783050537109	697.5404663085938	1241.638305664062	300.8260192871094	706.007080078125	1501.483154296875	232.4058532714844	756.405029296875	1412.590942382812	78.27879333496094	757.8755493164062	1366.330444335938	329.6498107910156	592.9923706054688	1460.725952148438	220.108154296875	569.30517578125	1458.585815429688	117.8363800048828	488.1426086425781	1340.761840820312	111.4139022827148	475.8826293945312	1134.46533203125	59.88872146606445	489.5906982421875	1105.629638671875	141.0023803710938	597.8445434570312	934.842529296875	-42.98538970947266	519.2422485351562	908.5347900390625	-59.93705368041992	486.6336364746094	1035.142700195312	12.66699028015137	624.5198364257812	750.0859985351562	-95.44477081298828	544.70458984375	828.5509643554688	-93.5384521484375	609.7816162109375	847.9031372070312	-106.3575134277344	885.1731567382812	1464.081909179688	224.9244537353516	946.1343994140625	1402.302368164062	262.89013671875	996.6100463867188	1126.620971679688	300.7093811035156	903.0064086914062	1112.750122070312	312.3269958496094	1011.403686523438	910.4735717773438	162.6320037841797	1058.198608398438	900.660888671875	232.7669372558594	1021.065734863281	1059.402954101562	280.7733764648438	1024.995727539062	717.619384765625	152.6270294189453	1047.31298828125	791.2611694335938	132.0745849609375	1079.5107421875	794.5088500976562	196.9612884521484	785.462158203125	1665.647705078125	176.5007476806641	700.7935791015625	1672.120361328125	-34.34811782836914	800.91259765625	1672.48974609375	-28.83348083496094	654.6747436523438	1663.609741210938	123.6889724731445	558.6478271484375	965.3856811523438	146.8735504150391	906.4810791015625	987.767333984375	258.4101867675781	898.4357299804688	1034.889770507812	154.7516174316406	632.5775146484375	1011.018310546875	65.07830047607422	678.8632202148438	489.454345703125	101.9044494628906	629.6906127929688	628.866943359375	105.719596862793	727.5025634765625	29.65670204162598	235.853515625	693.2955322265625	264.0729370117188	169.5688323974609	827.7068481445312	34.7375373840332	36.00299453735352	855.4208374023438	30.8949146270752	112.4697952270508	738.1828002929688	32.00311660766602	107.4510498046875	765.59912109375	37.75959014892578	305.2544555664062	954.8609008789062	511.7252807617188	118.8411407470703	951.1758422851562	777.2590942382812	169.5802154541016	869.4463500976562	145.8807678222656	438.1990661621094	937.8878784179688	401.7752685546875	153.5989990234375	908.1685791015625	49.17632293701172	257.5379943847656	847.7804565429688	66.96144866943359	286.1158447265625	932.1810302734375	89.07241821289062	367.3489685058594	795.080078125	175.0790863037109	463.1144714355469	
324	3.23	780.72607421875	1025.010986328125	317.7272033691406	665.2185668945312	1028.880737304688	281.7559509277344	702.0635986328125	1114.3740234375	295.7605895996094	764.8951416015625	1294.595825195312	50.68305969238281	700.3744506835938	1241.88623046875	296.5782775878906	707.8822631835938	1501.655883789062	227.7009124755859	756.91015625	1412.756103515625	73.12213134765625	760.7937622070312	1366.552856445312	324.4740600585938	594.9656372070312	1461.048950195312	216.7984924316406	570.2830810546875	1458.806274414062	114.5621948242188	489.2342529296875	1340.9638671875	108.3826293945312	477.2415771484375	1134.927734375	55.70897674560547	491.3039245605469	1105.514892578125	136.5120391845703	600.7676391601562	937.4888305664062	-49.38138961791992	522.40087890625	910.6539916992188	-66.58512878417969	488.7398681640625	1036.1591796875	7.45137882232666	629.0917358398438	753.6294555664062	-104.0528335571289	548.5596923828125	831.3203735351562	-101.1336822509766	613.4640502929688	851.421630859375	-113.8108291625977	887.0545043945312	1464.297607421875	218.4578399658203	948.46826171875	1402.611694335938	255.8736877441406	999.6983642578125	1127.052001953125	293.4814147949219	906.2064208984375	1113.03076171875	305.9028930664062	1013.091918945312	911.1071166992188	154.9319763183594	1060.582763671875	901.1093139648438	224.5934295654297	1023.957092285156	1059.817504882812	273.2097778320312	1026.610595703125	718.2559814453125	144.4096374511719	1048.671264648438	791.9403076171875	123.7406921386719	1081.552124023438	795.0513916015625	188.3199005126953	786.8930053710938	1665.785278320312	171.1006164550781	700.5465698242188	1672.14306640625	-39.11000823974609	800.7035522460938	1672.449340820312	-34.36775207519531	655.699462890625	1663.808349609375	119.2904281616211	559.5817260742188	965.3035888671875	144.9486236572266	909.2257690429688	988.2479248046875	251.1211547851562	899.3892822265625	1035.232666015625	147.6082000732422	632.2674560546875	1011.01220703125	61.86460494995117	678.5634765625	489.0967712402344	101.2464141845703	629.8515014648438	628.6954956054688	104.7707977294922	727.5679321289062	29.72852325439453	235.8412780761719	693.4755249023438	264.0275268554688	169.2695770263672	827.81787109375	34.67761611938477	35.94100189208984	855.4598999023438	30.77628898620605	112.4270477294922	738.173583984375	32.01615905761719	107.4580993652344	765.7268676757812	37.86278533935547	305.3102416992188	954.7325439453125	513.2561645507812	105.6780624389648	952.90625	778.22900390625	159.7417144775391	884.4603271484375	137.4268188476562	417.0538024902344	940.054443359375	402.4765930175781	138.5018615722656	919.0533447265625	48.06820678710938	231.8772277832031	859.185302734375	63.34607696533203	263.0962524414062	945.8541259765625	84.36471557617188	342.1943359375	810.4136962890625	164.3199615478516	445.4648132324219	
325	3.24	784.3467407226562	1025.017456054688	312.2279968261719	668.3663330078125	1029.065063476562	278.1328430175781	705.1949462890625	1114.58251953125	291.6273193359375	765.1100463867188	1294.685913085938	45.46123504638672	703.2310180664062	1242.092529296875	292.3173828125	709.7672119140625	1501.7861328125	222.9521331787109	757.3968505859375	1412.85107421875	67.93824005126953	763.696044921875	1366.748046875	319.2572021484375	596.9429321289062	1461.345092773438	213.4730987548828	571.2443237304688	1458.95166015625	111.2807540893555	490.2777709960938	1341.090209960938	105.4616317749023	478.4437561035156	1135.306884765625	51.73298263549805	492.8600158691406	1105.361572265625	132.2847290039062	603.5224609375	940.0829467773438	-55.52548217773438	525.3762817382812	912.6788940429688	-72.93488311767578	490.6760559082031	1037.087524414062	2.481157779693604	633.5442504882812	757.1849365234375	-112.3943862915039	552.25	834.0350952148438	-108.4292907714844	616.9564819335938	854.913330078125	-120.9855651855469	888.9273071289062	1464.454345703125	211.9342956542969	950.7786254882812	1402.85595703125	248.7940979003906	1002.754089355469	1127.421752929688	286.2195739746094	909.3934326171875	1113.277099609375	299.5133666992188	1014.648620605469	911.6749877929688	147.2192535400391	1062.856811523438	901.483154296875	216.3793487548828	1026.811767578125	1060.163330078125	265.6167907714844	1028.02294921875	718.818603515625	136.169677734375	1049.822265625	792.5365600585938	115.3679046630859	1083.4287109375	795.5065307617188	179.6304473876953	788.31640625	1665.844116210938	165.7106170654297	700.2871704101562	1672.163208007812	-43.85675430297852	800.468505859375	1672.414794921875	-39.88650894165039	656.7091674804688	1663.931396484375	114.8957672119141	560.5576782226562	965.2026977539062	142.9949035644531	911.936767578125	988.70751953125	243.8393249511719	900.33349609375	1035.520263671875	140.4893188476562	631.9873046875	1010.914611816406	58.71610260009766	678.3534545898438	488.7275695800781	100.5461120605469	630.0678100585938	628.4844360351562	103.7857894897461	727.619384765625	29.80733680725098	235.8204803466797	693.7197875976562	263.9519653320312	168.8950805664062	827.9367065429688	34.61545944213867	35.88501739501953	855.5066528320312	30.61759567260742	112.3858871459961	738.180419921875	32.03752517700195	107.4660339355469	765.8778686523438	37.92690658569336	305.362060546875	954.2603759765625	514.7432250976562	92.76612091064453	954.45849609375	779.0985717773438	150.0307006835938	898.9434204101562	128.8875579833984	394.8416748046875	941.7754516601562	403.0945739746094	123.4415130615234	928.9645385742188	47.13135147094727	205.3917083740234	869.7271118164062	59.80953598022461	239.171875	958.6766357421875	79.68962860107422	316.0220336914062	825.3551635742188	153.3040466308594	426.6686706542969	
